<svg xmlns="http://www.w3.org/2000/svg" xmlns:xlink="http://www.w3.org/1999/xlink" width="47" height="60" viewBox="0 0 47 60">
  <metadata><?xpacket begin="﻿" id="W5M0MpCehiHzreSzNTczkc9d"?>
<x:xmpmeta xmlns:x="adobe:ns:meta/" x:xmptk="Adobe XMP Core 5.6-c138 79.159824, 2016/09/14-01:09:01        ">
   <rdf:RDF xmlns:rdf="http://www.w3.org/1999/02/22-rdf-syntax-ns#">
      <rdf:Description rdf:about=""/>
   </rdf:RDF>
</x:xmpmeta>
                                                                                                    
                                                                                                    
                                                                                                    
                                                                                                    
                                                                                                    
                                                                                                    
                                                                                                    
                                                                                                    
                                                                                                    
                                                                                                    
                                                                                                    
                                                                                                    
                                                                                                    
                                                                                                    
                                                                                                    
                                                                                                    
                                                                                                    
                                                                                                    
                                                                                                    
                                                                                                    
                           
<?xpacket end="w"?></metadata>
<defs>
    <style>
      .cls-1 {
        fill-rule: evenodd;
        filter: url(#filter);
      }
    </style>
    <filter id="filter" x="0" y="0" width="47" height="60" filterUnits="userSpaceOnUse">
      <feFlood result="flood" flood-color="#f0671e"/>
      <feComposite result="composite" operator="in" in2="SourceGraphic"/>
      <feBlend result="blend" in2="SourceGraphic"/>
    </filter>
  </defs>
  <path id="Forma_1" data-name="Forma 1" class="cls-1" d="M44.086,0H2.914A2.918,2.918,0,0,0,0,2.914V57.086A2.918,2.918,0,0,0,2.914,60H44.086A2.918,2.918,0,0,0,47,57.086V2.914A2.918,2.918,0,0,0,44.086,0ZM45,57.086a0.915,0.915,0,0,1-.914.914H2.914A0.915,0.915,0,0,1,2,57.086V2.914A0.915,0.915,0,0,1,2.914,2H44.086A0.915,0.915,0,0,1,45,2.914V57.086ZM5,55H16V44H5V55Zm2-9h7v7H7V46Zm11,9H29V44H18V55Zm2-9h7v7H20V46Zm11,9H42V31H31V55Zm2-22h7V53H33V33ZM5,42H16V31H5V42Zm2-9h7v7H7V33Zm11,9H29V31H18V42Zm2-9h7v7H20V33ZM5,29H16V18H5V29Zm2-9h7v7H7V20Zm11,9H29V18H18V29Zm2-9h7v7H20V20Zm11,9H42V18H31V29Zm2-9h7v7H33V20ZM5,15H42V5H5V15ZM7,7H40v6H7V7Z"/>
</svg>
