<svg id="Layer_1" data-name="Layer 1" xmlns="http://www.w3.org/2000/svg" viewBox="0 0 198.35 75.76"><defs><style>.cls-1{fill:#f05a22;fill-rule:evenodd;}.cls-2{fill:#223f2e;}</style></defs><title>c-logo</title><path class="cls-1" d="M64.16,19.27,37.34,3.77a7.79,7.79,0,0,0-7,0L3.5,19.27A7.75,7.75,0,0,0,0,25.33v31a7.78,7.78,0,0,0,3.5,6.07L30.33,77.87a7.79,7.79,0,0,0,7,0L64.16,62.38a7.76,7.76,0,0,0,3.51-6.07v-31A7.73,7.73,0,0,0,64.16,19.27Zm-30.33,47L56.38,53.47V45.76l-4.89,2.77c0,.14,0,.29-.05.43-.46,3-2.78,5.55-5.17,5.77s-4-2-3.49-5S45.56,44.2,48,44a3,3,0,0,1,2.69,1.14l6.57-3.65,3.09-1.7-.86.46h0l.86-.48V56.1L33.83,71.38,7.37,56.1V25.34L33.83,40.43l22.63-12.9L33.82,14.88l-7.74,4.44,8.27,4.73L37.88,22l.39,7.6-11.58-1,4.63-2.75-8.42-4.7h0l-4.09-2.3h0L22,17h0l11.79-6.76L60.3,25.34v5.33L33.83,46,11.46,33V53.59Z" transform="translate(0 -2.94)"/><path class="cls-2" d="M83.07,38.94q-2.94-2.49-2.94-7.36c0-3.24,1-5.7,3-7.36s4.72-2.49,8.17-2.49a21.61,21.61,0,0,1,3.82.3,12.23,12.23,0,0,1,3.17,1v5.26a12.39,12.39,0,0,0-5.35-1.12,6.27,6.27,0,0,0-3.89,1,4.09,4.09,0,0,0-1.26,3.39A4.14,4.14,0,0,0,89,34.93a6,6,0,0,0,3.91,1,11.57,11.57,0,0,0,5.39-1.32v5.51a17.22,17.22,0,0,1-7.07,1.28C87.76,41.44,85,40.61,83.07,38.94Z" transform="translate(0 -2.94)"/><path class="cls-2" d="M99.87,31.58c0-3.22.92-5.66,2.75-7.34s4.6-2.51,8.3-2.51,6.51.84,8.36,2.51,2.77,4.12,2.77,7.34q0,9.86-11.13,9.86T99.87,31.58Zm13.7,3.35a5.39,5.39,0,0,0,.82-3.35,5.44,5.44,0,0,0-.82-3.33,3.15,3.15,0,0,0-2.65-1.06,3,3,0,0,0-2.59,1.06,5.52,5.52,0,0,0-.8,3.33,5.47,5.47,0,0,0,.8,3.35,3,3,0,0,0,2.59,1A3.14,3.14,0,0,0,113.57,34.93Z" transform="translate(0 -2.94)"/><path class="cls-2" d="M125.74,40q-1.5-1.45-1.5-4.65V14.15h7.5V34.49a1.55,1.55,0,0,0,.34,1.16,1.62,1.62,0,0,0,1.14.32,5.1,5.1,0,0,0,1.95-.32v5a10.53,10.53,0,0,1-2,.62,13.88,13.88,0,0,1-2.45.18Q127.24,41.44,125.74,40Z" transform="translate(0 -2.94)"/><path class="cls-2" d="M138.25,27.59H135.5l.64-5.46h9.61V41h-7.5Zm-.59-13.4h8.09v5.42h-8.09Z" transform="translate(0 -2.94)"/><path class="cls-2" d="M158.33,41a9.26,9.26,0,0,1-2.58-1.4L155.39,41h-6.5V14.15h7.5V22.8a8.44,8.44,0,0,1,2.26-.79,12.06,12.06,0,0,1,2.61-.28q9.06,0,9.06,9.69c0,3.3-.79,5.8-2.36,7.48a8.35,8.35,0,0,1-6.46,2.54A9.6,9.6,0,0,1,158.33,41Zm3.54-6a5.86,5.86,0,0,0,.78-3.45,5.48,5.48,0,0,0-.79-3.36,3,3,0,0,0-2.52-1,4.28,4.28,0,0,0-3,1v6.7a4.13,4.13,0,0,0,3,1.16A2.93,2.93,0,0,0,161.87,35Z" transform="translate(0 -2.94)"/><path class="cls-2" d="M172.63,22.13h7.23l.2,1.51a14.2,14.2,0,0,1,3-1.26,16.57,16.57,0,0,1,3.57-.65v5.58a26.57,26.57,0,0,0-3.54.52,13.21,13.21,0,0,0-3,.92V41h-7.51Z" transform="translate(0 -2.94)"/><path class="cls-2" d="M190.84,27.59h-2.75l.64-5.46h9.62V41h-7.51Zm-.6-13.4h8.11v5.42h-8.11Z" transform="translate(0 -2.94)"/><path class="cls-2" d="M173.91,55.79a3.88,3.88,0,0,1-1.35-1.35,3.76,3.76,0,0,1,0-3.71,3.8,3.8,0,0,1,1.35-1.35A3.71,3.71,0,0,1,179,54.44a3.72,3.72,0,0,1-1.35,1.35,3.76,3.76,0,0,1-3.71,0Zm3.48-.41a3.15,3.15,0,0,0,1.16-1.16,3.37,3.37,0,0,0,0-3.26,3.08,3.08,0,0,0-1.16-1.16,3.29,3.29,0,0,0-3.25,0A3.08,3.08,0,0,0,173,51a3.37,3.37,0,0,0,0,3.26,3.15,3.15,0,0,0,1.16,1.16,3.35,3.35,0,0,0,3.25,0ZM174,50.1h2.09a1.63,1.63,0,0,1,1.17.38,1.46,1.46,0,0,1,.39,1.08,1.43,1.43,0,0,1-.29.94,1.37,1.37,0,0,1-.86.46.71.71,0,0,1,.26.21,2,2,0,0,1,.19.34l.66,1.55h-.49l-.67-1.53a.65.65,0,0,0-.29-.36,1.48,1.48,0,0,0-.63-.09h-1v2H174Zm1.89,2.55a1.66,1.66,0,0,0,1-.23,1,1,0,0,0,.31-.86,1,1,0,0,0-.26-.8,1.28,1.28,0,0,0-.84-.23h-1.56v2.12Z" transform="translate(0 -2.94)"/><path class="cls-2" d="M82.87,60.28q-1.62-1.66-1.62-5.23,0-6.73,6-6.74a4.86,4.86,0,0,1,5.41,5.25v2.37H82.77a6.64,6.64,0,0,0,.63,2.78,3.29,3.29,0,0,0,1.73,1.52,8.61,8.61,0,0,0,3.19.49,9.23,9.23,0,0,0,3.54-.7v1.25A10.07,10.07,0,0,1,88,62Q84.48,62,82.87,60.28Zm8.46-5.53V53.5q0-3.91-4-3.92a4.26,4.26,0,0,0-3.52,1.29,6,6,0,0,0-1,3.88Z" transform="translate(0 -2.94)"/><path class="cls-2" d="M99.75,55,95,48.59h1.66l4,5.39,4-5.39h1.63L101.44,55l4.92,6.66H104.7L100.56,56l-4.12,5.64H94.81Z" transform="translate(0 -2.94)"/><path class="cls-2" d="M109.18,48.59h1.28l.13,1.49a6.19,6.19,0,0,1,2.1-1.34,7.55,7.55,0,0,1,2.63-.43q5.85,0,5.85,6.79,0,3.49-1.56,5.17a5.68,5.68,0,0,1-4.4,1.69,8.68,8.68,0,0,1-2.46-.32,6.31,6.31,0,0,1-2-1v7.05h-1.52Zm9.3,10.77a6.3,6.3,0,0,0,1.2-4.26,6.57,6.57,0,0,0-1.1-4.18A4.46,4.46,0,0,0,115,49.58a5.58,5.58,0,0,0-4.26,1.77v7.9a6.07,6.07,0,0,0,4.12,1.47A4.65,4.65,0,0,0,118.48,59.36Z" transform="translate(0 -2.94)"/><path class="cls-2" d="M124.33,48.59h1.33l.16,1.82a12.51,12.51,0,0,1,2.31-1.24,15.62,15.62,0,0,1,2.61-.86v1.24a19.42,19.42,0,0,0-2.66.9,11.49,11.49,0,0,0-2.23,1.17V61.68h-1.52Z" transform="translate(0 -2.94)"/><path class="cls-2" d="M133.89,60.28q-1.62-1.66-1.62-5.23,0-6.73,6-6.74a4.86,4.86,0,0,1,5.41,5.25v2.37h-9.94a6.49,6.49,0,0,0,.63,2.78,3.32,3.32,0,0,0,1.73,1.52,8.61,8.61,0,0,0,3.19.49,9.27,9.27,0,0,0,3.54-.7v1.25A10.11,10.11,0,0,1,139,62Q135.5,62,133.89,60.28Zm8.46-5.53V53.5c0-2.61-1.33-3.92-4-3.92a4.28,4.28,0,0,0-3.52,1.29,6.09,6.09,0,0,0-1,3.88Z" transform="translate(0 -2.94)"/><path class="cls-2" d="M146.63,61.4V60.05a11.69,11.69,0,0,0,3.83.61,5.34,5.34,0,0,0,2.77-.53,2,2,0,0,0,.82-1.76,2.06,2.06,0,0,0-.31-1.22,2.37,2.37,0,0,0-.93-.72c-.41-.18-1-.42-1.91-.72l-.69-.25a22,22,0,0,1-2.22-.84,3.19,3.19,0,0,1-1.23-1,3,3,0,0,1-.5-1.84,3,3,0,0,1,1.15-2.59,6.16,6.16,0,0,1,3.66-.86,12.46,12.46,0,0,1,3.48.47v1.35a11,11,0,0,0-3.26-.49,5.69,5.69,0,0,0-2.74.48,1.74,1.74,0,0,0-.8,1.61,1.84,1.84,0,0,0,.34,1.18,2.35,2.35,0,0,0,1,.71c.43.18,1.13.43,2.11.74a18.15,18.15,0,0,1,2.56,1,3.56,3.56,0,0,1,1.36,1.16,3.34,3.34,0,0,1,.47,1.87q0,3.59-4.91,3.59A12.72,12.72,0,0,1,146.63,61.4Z" transform="translate(0 -2.94)"/><path class="cls-2" d="M158.18,61.4V60.05a11.71,11.71,0,0,0,3.84.61,5.32,5.32,0,0,0,2.76-.53,1.93,1.93,0,0,0,.83-1.76,2.06,2.06,0,0,0-.32-1.22,2.3,2.3,0,0,0-.93-.72c-.4-.18-1-.42-1.9-.72l-.69-.25a21.41,21.41,0,0,1-2.23-.84,3.19,3.19,0,0,1-1.23-1,3,3,0,0,1-.5-1.84A3,3,0,0,1,159,49.17a6.13,6.13,0,0,1,3.65-.86,12.36,12.36,0,0,1,3.48.47v1.35a10.9,10.9,0,0,0-3.25-.49,5.64,5.64,0,0,0-2.74.48,1.72,1.72,0,0,0-.8,1.61,1.9,1.9,0,0,0,.33,1.18,2.42,2.42,0,0,0,1,.71c.43.18,1.14.43,2.11.74a18.15,18.15,0,0,1,2.56,1,3.59,3.59,0,0,1,1.37,1.16,3.34,3.34,0,0,1,.47,1.87q0,3.59-4.92,3.59A12.72,12.72,0,0,1,158.18,61.4Z" transform="translate(0 -2.94)"/></svg>