<svg xmlns="http://www.w3.org/2000/svg" xmlns:xlink="http://www.w3.org/1999/xlink" width="155.719" height="135.281" viewBox="0 0 155.719 135.281">
  <metadata><?xpacket begin="﻿" id="W5M0MpCehiHzreSzNTczkc9d"?>
<x:xmpmeta xmlns:x="adobe:ns:meta/" x:xmptk="Adobe XMP Core 5.6-c142 79.160924, 2017/07/13-01:06:39        ">
   <rdf:RDF xmlns:rdf="http://www.w3.org/1999/02/22-rdf-syntax-ns#">
      <rdf:Description rdf:about=""/>
   </rdf:RDF>
</x:xmpmeta>
                                                                                                    
                                                                                                    
                                                                                                    
                                                                                                    
                                                                                                    
                                                                                                    
                                                                                                    
                                                                                                    
                                                                                                    
                                                                                                    
                                                                                                    
                                                                                                    
                                                                                                    
                                                                                                    
                                                                                                    
                                                                                                    
                                                                                                    
                                                                                                    
                                                                                                    
                                                                                                    
                           
<?xpacket end="w"?></metadata>
<defs>
    <style>
      .cls-1 {
        fill-rule: evenodd;
        filter: url(#filter);
      }
    </style>
    <filter id="filter" x="0.281" y="0.719" width="156.438" height="135.562" filterUnits="userSpaceOnUse">
      <feFlood result="flood" flood-color="#f06a20"/>
      <feComposite result="composite" operator="in" in2="SourceGraphic"/>
      <feBlend result="blend" in2="SourceGraphic"/>
    </filter>
  </defs>
  <path id="Forma_1" data-name="Forma 1" class="cls-1" d="M150.6,27.682a20.093,20.093,0,0,0-14.746-6.11h-18.25l-4.153-11.08a15.137,15.137,0,0,0-5.663-6.885A14.515,14.515,0,0,0,99.358.714H57.644a14.511,14.511,0,0,0-8.433,2.893,15.135,15.135,0,0,0-5.662,6.885l-4.155,11.08H21.144A20.1,20.1,0,0,0,6.4,27.682,20.1,20.1,0,0,0,.287,42.429v73A20.094,20.094,0,0,0,6.4,130.175a20.1,20.1,0,0,0,14.747,6.111H135.858a20.861,20.861,0,0,0,20.855-20.857v-73A20.092,20.092,0,0,0,150.6,27.682Zm-46.317,77.034A35.155,35.155,0,0,1,78.5,115.431a35.155,35.155,0,0,1-25.786-10.715A35.15,35.15,0,0,1,42,78.931,35.154,35.154,0,0,1,52.714,53.144,35.149,35.149,0,0,1,78.5,42.43a35.156,35.156,0,0,1,25.787,10.714A35.149,35.149,0,0,1,115,78.931,35.159,35.159,0,0,1,104.287,104.716ZM78.5,55.465A23.507,23.507,0,0,0,55.036,78.931,23.505,23.505,0,0,0,78.5,102.394a23.5,23.5,0,0,0,23.465-23.463A23.506,23.506,0,0,0,78.5,55.465Z" transform="translate(-0.281 -0.719)"/>
</svg>
