<svg id="SvgjsSvg1001" width="288" height="288" xmlns="http://www.w3.org/2000/svg" version="1.1" xmlns:xlink="http://www.w3.org/1999/xlink" xmlns:svgjs="http://svgjs.com/svgjs"><defs id="SvgjsDefs1002"></defs><g id="SvgjsG1008"><svg xmlns="http://www.w3.org/2000/svg" viewBox="0 0 155.719 135.281" width="288" height="288"><defs><filter id="a" width="156.438" height="135.562" x=".281" y=".719" filterUnits="userSpaceOnUse"><feFlood flood-color="#f4a51c" result="flood"></feFlood><feComposite in2="SourceGraphic" operator="in" result="composite"></feComposite><feBlend in2="SourceGraphic" result="blend"></feBlend></filter></defs><path fill-rule="evenodd" d="M150.6,27.682a20.093,20.093,0,0,0-14.746-6.11h-18.25l-4.153-11.08a15.137,15.137,0,0,0-5.663-6.885A14.515,14.515,0,0,0,99.358.714H57.644a14.511,14.511,0,0,0-8.433,2.893,15.135,15.135,0,0,0-5.662,6.885l-4.155,11.08H21.144A20.1,20.1,0,0,0,6.4,27.682,20.1,20.1,0,0,0,.287,42.429v73A20.094,20.094,0,0,0,6.4,130.175a20.1,20.1,0,0,0,14.747,6.111H135.858a20.861,20.861,0,0,0,20.855-20.857v-73A20.092,20.092,0,0,0,150.6,27.682Zm-46.317,77.034A35.155,35.155,0,0,1,78.5,115.431a35.155,35.155,0,0,1-25.786-10.715A35.15,35.15,0,0,1,42,78.931,35.154,35.154,0,0,1,52.714,53.144,35.149,35.149,0,0,1,78.5,42.43a35.156,35.156,0,0,1,25.787,10.714A35.149,35.149,0,0,1,115,78.931,35.159,35.159,0,0,1,104.287,104.716ZM78.5,55.465A23.507,23.507,0,0,0,55.036,78.931,23.505,23.505,0,0,0,78.5,102.394a23.5,23.5,0,0,0,23.465-23.463A23.506,23.506,0,0,0,78.5,55.465Z" data-name="Forma 1" filter="url(#a)" transform="translate(-.281 -.719)" fill="#f4a51c" class="color000 svgShape"></path></svg></g></svg>