<?xml version="1.0" encoding="utf-8"?>
<!-- Generator: Adobe Illustrator 22.1.0, SVG Export Plug-In . SVG Version: 6.00 Build 0)  -->
<svg version="1.1" id="Capa_1" xmlns="http://www.w3.org/2000/svg" xmlns:xlink="http://www.w3.org/1999/xlink" x="0px" y="0px"
	 viewBox="0 0 323.9 136.7" style="enable-background:new 0 0 323.9 136.7;" xml:space="preserve">
<style type="text/css">
	.st0{fill:#E30613;}
</style>
<g>
	<path class="st0" d="M105.7,111c0.9,0.6,1.6,1.6,1.6,2.8c0,1.8-1.5,3.2-3.2,3.2c-0.6,0-1.2-0.2-1.8-0.5
		C86.6,107.9,54.2,77.7,38,52.9c-0.2,0.5-0.2,1-0.3,1.4c17.8,28.2,52.1,56.2,63.6,63.8c1,0.6,1.6,1.6,1.6,2.8c0,1.8-1.4,3.2-3.2,3.2
		c-0.6,0-1.2-0.2-1.7-0.5c-12.7-7.2-39.2-28.9-62.2-59.4c-0.1,0.6-0.1,1.1-0.2,1.4c16.3,22.8,39.1,44.3,61.6,59.4
		c1,0.6,1.6,1.6,1.6,2.8c0,1.8-1.5,3.2-3.2,3.2c-0.6,0-1.2-0.2-1.7-0.5c-0.6-0.2-1.1-0.6-1.6-0.9c-21.3-13.7-41.7-33.5-58.1-54
		C33,82,32.5,95,32.1,101.8c0,1.8-1.5,3.2-3.2,3.2c-1.8,0-3.2-1.5-3.2-3.2C24.5,60,41.8,16.4,46.7,7.6V7.5c0.5-1.1,1.6-1.8,2.9-1.8
		c1.8,0,3.2,1.4,3.2,3.2c0,0.4-0.1,0.9-0.2,1.2c-5.7,13.3-9,22-12,33.1c0.9,1.7,2.1,3.3,3.3,4.9c4.4-4.3,7.9-8.1,12.3-12
		c0.2-0.2,0.5-0.5,0.9-0.7c0.5-0.4,1.2-0.7,2-0.7c1.8,0,3.2,1.5,3.2,3.2c0,0.9-0.4,1.7-1,2.3c-4.5,4.6-9.2,8.7-13.3,13.7
		c0.1,0.4,0.5,0.8,0.7,1.1c6.7-6.9,13.1-13.4,20.5-19.5c0.6-0.5,1.3-0.8,2.1-0.8c1.8,0,3.2,1.5,3.2,3.2c0,1-0.3,1.7-1,2.3
		C66.1,47,59.4,53.3,52.7,60.8c0,0.4,0.5,0.7,0.7,1.1c8.9-9.4,17.9-18.3,28-26.1c0.6-0.5,1.3-0.8,2.1-0.8c1.8,0,3.2,1.5,3.2,3.2
		c0,1-0.5,1.9-1.2,2.5c-0.6,0.5-18,14.3-27.9,26.6C86,99.4,105.2,110.6,105.7,111z M240.7,5.7c1.8,0,3.2,1.5,3.2,3.2
		c0,1.8-1.4,3.2-3.2,3.2H223c-1.8,0-3.2-1.5-3.2-3.2c0-1.8,1.5-3.2,3.2-3.2H240.7z M237.6,13.3c1.8,0,3.2,1.4,3.2,3.2
		c0,1.8-1.4,3.2-3.2,3.2h-17.7c-1.8,0-3.2-1.4-3.2-3.2s1.5-3.2,3.2-3.2C219.9,13.3,237.6,13.3,237.6,13.3z M234.5,20.9
		c1.8,0,3.2,1.5,3.2,3.2s-1.5,3.2-3.2,3.2h-17.7c-1.8,0-3.2-1.5-3.2-3.2s1.4-3.2,3.2-3.2H234.5z M207.4,101.8c0,1.8-1.5,3.2-3.2,3.2
		c-1.8,0-3.2-1.4-3.2-3.2c-0.1-0.5-0.1-1-0.1-1.5c0.5-21.9,3.5-43.1,9.4-62.9c0.4-1.4,1.6-2.5,3.1-2.5c1.8,0,3.2,1.5,3.2,3.2
		c0,0.3,0,0.5-0.1,0.8C211.1,59,208,80.1,207.4,101.8L207.4,101.8z"/>
	<path class="st0" d="M215.7,101.8c0,1.8-1.4,3.2-3.2,3.2s-3.2-1.4-3.2-3.2c-0.1-0.5-0.1-1-0.1-1.5c0.5-21.9,3.5-43.1,9.4-62.9
		c0.4-1.4,1.6-2.5,3.1-2.5c1.8,0,3.2,1.5,3.2,3.2c0,0.3,0,0.5-0.1,0.8C219.4,59,216.3,80.1,215.7,101.8L215.7,101.8z"/>
	<path class="st0" d="M224,101.8c0,1.8-1.4,3.2-3.2,3.2s-3.2-1.4-3.2-3.2c-0.1-0.5-0.1-1-0.1-1.5c0.5-21.9,3.5-43.1,9.4-62.9
		c0.4-1.4,1.6-2.5,3.1-2.5c1.8,0,3.2,1.5,3.2,3.2c0,0.3,0,0.5-0.1,0.8C227.7,59,224.6,80.1,224,101.8L224,101.8z M34.9,10.2
		c-12.5,28.1-18.7,58.9-19.5,91.5c0,1.8-1.4,3.2-3.2,3.2S9,103.4,9,101.7c-0.1-1,0-2,0-3.1c2.2-40.6,7.5-63,20-91.1
		c0.5-1.1,1.6-1.8,2.9-1.8c1.8,0,3.3,1.4,3.3,3.2C35.3,9.4,35.1,9.8,34.9,10.2z M201.3,43.5c1.8,0,3.2,1.4,3.2,3.2s-1.5,3.2-3.2,3.2
		h-39.8c-1.8,0-3.2-1.4-3.2-3.2s1.5-3.2,3.2-3.2H201.3z M203,35.5c1.8,0,3.2,1.5,3.2,3.2c0,1.8-1.4,3.2-3.2,3.2h-39.8
		c-1.8,0-3.2-1.5-3.2-3.2c0-1.8,1.4-3.2,3.2-3.2h8.3c2.6-8.2,5.7-17,9.3-25c0.5-0.9,0.8-1.9,1.3-2.8c0.8-1.6,2.7-2.3,4.3-1.6
		c1.6,0.8,2.3,2.7,1.6,4.3c-3.5,8.1-7,17.1-9.3,25.1h1.7c2.6-8.2,5.7-17,9.3-25.1c0.5-0.9,0.8-1.9,1.3-2.8c0.8-1.6,2.7-2.3,4.3-1.6
		c1.6,0.8,2.3,2.7,1.6,4.3c-3.6,8.1-7.2,17.2-9.3,25.1h1.6c2.6-8.2,5.8-17,9.3-25.1c0.5-0.9,0.8-1.9,1.3-2.8
		c0.8-1.6,2.7-2.3,4.3-1.6c1.6,0.8,2.3,2.7,1.6,4.3c-3.6,8.1-8.2,20.3-9.4,25.1L203,35.5L203,35.5z M166.6,58h-6.7
		c-1.8,0-3.2-1.4-3.2-3.2s1.5-3.2,3.2-3.2h39.8c1.8,0,3.2,1.5,3.2,3.2c0,1.8-1.4,3.2-3.2,3.2h-9.3c-2.8,14.1-4.4,28.8-4.7,43.8
		c0,1.8-1.5,3.2-3.2,3.2c-1.8,0-3.2-1.5-3.2-3.2c-0.1-1,0.1-2,0-3.1c0.3-13.9,1.8-27.5,4.4-40.7h-1.6c-2.8,14.1-4.4,28.7-4.7,43.7
		c0,1.8-1.4,3.2-3.2,3.2s-3.2-1.5-3.2-3.2c-0.1-1,0.1-2,0-3.1c0.3-13.9,1.8-27.5,4.4-40.7h-1.7c-2.8,14.1-4.4,28.7-4.7,43.7
		c0,1.8-1.4,3.2-3.2,3.2s-3.2-1.5-3.2-3.2c-0.1-1,0.1-2,0-3.1C162.5,84.8,163.9,71.2,166.6,58L166.6,58z"/>
	<path class="st0" d="M43.5,10.2C31,38.3,24.4,69.1,23.7,101.7c0,1.8-1.4,3.2-3.2,3.2c-1.8,0-3.2-1.5-3.2-3.2c-0.1-1,0.1-2,0-3.1
		c0.6-32.5,7.9-63.1,20.4-91.2c0.5-1.1,1.6-1.8,2.9-1.8c1.8,0,3.2,1.4,3.2,3.2C43.7,9.4,43.7,9.8,43.5,10.2z M311,100
		c0.9-0.1,1.5-0.8,1.5-1.6c0-0.5-0.3-1.1-0.8-1.4s-1.1-0.3-1.6-0.3h-0.9v5.8h0.8v-2.4h0.3l1.8,2.4h0.9L311,100L311,100z M309.9,97.4
		h0.2c0.8,0,1.7,0.1,1.7,1s-0.9,1.1-1.6,1.1H310v-2.1H309.9z"/>
	<path class="st0" d="M310.7,104.8c-2.7,0-4.9-2.2-4.9-4.9c0-2.8,2.1-4.9,4.9-4.9c2.7,0,4.9,2.2,4.9,4.9
		C315.6,102.6,313.4,104.8,310.7,104.8z M310.7,96c-2.2,0-3.9,1.7-3.9,3.9c0,2.1,1.8,3.9,3.9,3.9c2.1,0,3.9-1.8,3.9-3.9
		C314.6,97.8,312.8,96,310.7,96z"/>
	<path class="st0" d="M122.8,82.6c1.1,0.7,1.6,1.6,1.6,2.8c0,1.8-1.4,3.2-3.2,3.2c-8.6,0.6-16.9-0.3-21.8-7.8
		c-3.5-4.7-4.5-12.4-2-18c7.1-14.1,19-11.7,33.3-11.8c0.3-0.3,0.3-0.8,0.4-1.2c-18.2-0.5-24.4,0.2-29.6,5.1c-2,1.9-2.8,2.8-4.5,5.6
		c-3.3,6.2-3.1,15.1,1.1,20.8c4.1,6,10.9,9,18.3,8.9c1.8,0,3.2,1.4,3.2,3.2c0,1.8-1.4,3.2-3.2,3.2c-1.8,0.3-3.9-0.2-5.6-0.1
		c-9.9-1.2-19.2-9.6-21.8-19.1c-2.8-10,0.2-20.5,7.9-27.4c5.9-5.4,12-8.1,35.7-7.2c0.3-0.3,0.2-0.7,0.4-1.1
		c-4.8,0.4-24.1-2.1-33.5,4.6C90.1,52.7,85,62.4,86.4,73.7c1,10.2,10.7,23,24.9,24.3c1.8,0,3.3,1.5,3.3,3.2c0,1.8-1.5,3.2-3.2,3.2
		c-16.7-1.5-28.8-15.2-30.9-26.9c-3-14.8,3.2-29.4,16.1-37.2c10.7-7.5,24.6-4.6,38-5.5c2.2,0,5.1-0.3,6,2.3c0.3,0.9,0,1.7,0,2.6
		c-5.3,19.7-8.1,40.5-8.8,62.1c0,1.8-1.4,3.2-3.2,3.2s-3.2-1.5-3.2-3.2c-0.1-15.2,1.6-29.5,4-43.7c-12.1,0.2-10.9-0.3-16.7,0.1
		c-4.2,0.6-8.6,4.3-9.6,8.5c-1.2,5.1,0.4,10.1,4.7,13.1c3.8,2.9,8.7,2.4,13.5,2.3C121.2,82.2,122.3,82.3,122.8,82.6"/>
	<path class="st0" d="M139.9,101.8c0,1.8-1.5,3.2-3.2,3.2c-1.8,0-3.2-1.4-3.2-3.2c-0.1-0.5-0.1-1-0.1-1.5
		c0.5-21.9,3.5-43.1,9.4-62.9c0.4-1.4,1.6-2.5,3.1-2.5c1.8,0,3.2,1.5,3.2,3.2c0,0.3,0,0.5-0.1,0.8C143.6,59,140.5,80.1,139.9,101.8
		L139.9,101.8z"/>
	<path class="st0" d="M148.2,101.8c0,1.8-1.4,3.2-3.2,3.2s-3.2-1.4-3.2-3.2c-0.1-0.5-0.1-1-0.1-1.5c0.5-21.9,3.5-43.1,9.4-62.9
		c0.4-1.4,1.6-2.5,3.1-2.5c1.8,0,3.2,1.5,3.2,3.2c0,0.3,0,0.5-0.1,0.8C151.9,59,148.8,80.1,148.2,101.8L148.2,101.8z M277,82.6
		c1.1,0.7,1.6,1.6,1.6,2.8c0,1.8-1.5,3.2-3.2,3.2c-8.6,0.6-16.9-0.3-21.8-7.8c-3.5-4.7-4.5-12.4-2-18c7.2-14.1,19-11.7,33.3-11.8
		c0.3-0.3,0.3-0.8,0.4-1.2C267,49.4,260.8,50,255.6,55c-2,1.9-2.8,2.8-4.6,5.6c-3.3,6.2-3.1,15.1,1.1,20.8c4.2,6,10.9,9,18.3,8.9
		c1.8,0,3.2,1.4,3.2,3.2c0,1.8-1.5,3.2-3.2,3.2c-1.8,0.3-3.9-0.2-5.6-0.1c-9.9-1.2-19.2-9.6-21.8-19.1c-2.8-10,0.2-20.5,7.9-27.4
		c5.9-5.4,12-8.1,35.7-7.2c0.3-0.3,0.2-0.7,0.4-1.1c-4.8,0.4-24.1-2.1-33.5,4.6c-9.1,6.3-14.2,16.1-12.7,27.3
		c1,10.2,10.7,23,24.9,24.3c1.8,0,3.3,1.5,3.3,3.2c0,1.8-1.4,3.2-3.2,3.2c-16.7-1.5-28.8-15.2-30.9-26.9c-3-14.8,3.2-29.4,16.1-37.2
		c10.7-7.5,24.6-4.6,38-5.5c2.2,0,5.1-0.3,6,2.3c0.3,0.9,0,1.7,0,2.6c-5.3,19.7-8.1,40.5-8.8,62.1c0,1.8-1.5,3.2-3.2,3.2
		c-1.8,0-3.2-1.5-3.2-3.2c-0.1-15.2,1.6-29.5,4-43.7c-12.1,0.2-10.9-0.3-16.7,0.1c-4.2,0.6-8.7,4.3-9.6,8.5
		c-1.2,5.1,0.4,10.1,4.7,13.1c3.8,2.9,8.7,2.4,13.5,2.3C275.4,82.2,276.5,82.3,277,82.6"/>
	<path class="st0" d="M294.1,101.8c0,1.8-1.4,3.2-3.2,3.2s-3.2-1.4-3.2-3.2c-0.1-0.5-0.1-1-0.1-1.5c0.5-21.9,3.5-43.1,9.4-62.9
		c0.4-1.4,1.6-2.5,3.1-2.5c1.8,0,3.2,1.5,3.2,3.2c0,0.3,0,0.5-0.1,0.8C297.8,59,294.7,80.1,294.1,101.8L294.1,101.8z"/>
	<path class="st0" d="M302.4,101.8c0,1.8-1.5,3.2-3.2,3.2c-1.8,0-3.2-1.4-3.2-3.2c-0.1-0.5-0.1-1-0.1-1.5
		c0.5-21.9,3.5-43.1,9.4-62.9c0.3-1.4,1.6-2.5,3.1-2.5c1.8,0,3.2,1.5,3.2,3.2c0,0.3,0,0.5-0.1,0.8C306.1,59,303,80.1,302.4,101.8
		L302.4,101.8z"/>
</g>
</svg>
