<svg width="10" height="10" viewBox="0 0 10 10" fill="none" xmlns="http://www.w3.org/2000/svg">
<path d="M3.54331 4.99998C3.54331 4.19577 4.19547 3.54365 5.00016 3.54365C5.80486 3.54365 6.45736 4.19577 6.45736 4.99998C6.45736 5.80419 5.80486 6.45631 5.00016 6.45631C4.19547 6.45631 3.54331 5.80419 3.54331 4.99998ZM2.75557 4.99998C2.75557 6.23893 3.76047 7.24322 5.00016 7.24322C6.23985 7.24322 7.24475 6.23893 7.24475 4.99998C7.24475 3.76104 6.23985 2.75674 5.00016 2.75674C3.76047 2.75674 2.75557 3.76104 2.75557 4.99998ZM6.80906 2.6678C6.80902 2.77148 6.83974 2.87285 6.89734 2.95908C6.95495 3.04531 7.03684 3.11254 7.13268 3.15226C7.22851 3.19197 7.33398 3.2024 7.43574 3.18221C7.5375 3.16202 7.63098 3.11213 7.70437 3.03884C7.77776 2.96556 7.82776 2.87217 7.84804 2.77048C7.86832 2.6688 7.85797 2.56339 7.81831 2.46758C7.77865 2.37177 7.71144 2.28987 7.62521 2.23224C7.53897 2.1746 7.43756 2.14381 7.33382 2.14377H7.33361C7.19454 2.14383 7.06119 2.19906 6.96284 2.29731C6.86449 2.39557 6.80918 2.52882 6.80906 2.6678ZM3.23417 8.55595C2.80799 8.53655 2.57635 8.4656 2.42241 8.40566C2.21833 8.32626 2.07271 8.23169 1.91962 8.07889C1.76652 7.92609 1.67175 7.7807 1.59265 7.57674C1.53264 7.42297 1.46165 7.19139 1.44227 6.76547C1.42108 6.30498 1.41685 6.16665 1.41685 5.00002C1.41685 3.83338 1.42143 3.69544 1.44227 3.23456C1.46168 2.80864 1.5332 2.57752 1.59265 2.42329C1.6721 2.21933 1.76673 2.0738 1.91962 1.92079C2.0725 1.76779 2.21798 1.67307 2.42241 1.59402C2.57628 1.53405 2.80799 1.4631 3.23417 1.44374C3.69494 1.42256 3.83335 1.41833 5.00016 1.41833C6.16697 1.41833 6.30552 1.42291 6.76667 1.44374C7.19285 1.46314 7.42411 1.53461 7.57843 1.59402C7.78252 1.67307 7.92813 1.768 8.08123 1.92079C8.23433 2.07359 8.32875 2.21933 8.4082 2.42329C8.46821 2.57707 8.5392 2.80864 8.55857 3.23456C8.57976 3.69544 8.584 3.83338 8.584 5.00002C8.584 6.16665 8.57976 6.3046 8.55857 6.76547C8.53916 7.19139 8.46783 7.4229 8.4082 7.57674C8.32875 7.7807 8.23412 7.92623 8.08123 8.07889C7.92834 8.23155 7.78252 8.32626 7.57843 8.40566C7.42456 8.46564 7.19285 8.53658 6.76667 8.55595C6.30591 8.57712 6.1675 8.58135 5.00016 8.58135C3.83283 8.58135 3.6948 8.57712 3.23417 8.55595ZM3.19798 0.657804C2.73263 0.678983 2.41465 0.752726 2.13695 0.860718C1.84936 0.972241 1.6059 1.12186 1.36261 1.36461C1.11933 1.60737 0.970004 1.85107 0.858415 2.13849C0.750357 2.4162 0.67657 2.73381 0.655379 3.19888C0.633837 3.66468 0.628906 3.8136 0.628906 4.99998C0.628906 6.18636 0.633837 6.33528 0.655379 6.80108C0.67657 7.26618 0.750357 7.58377 0.858415 7.86147C0.970004 8.14872 1.11936 8.3927 1.36261 8.63535C1.60586 8.878 1.84936 9.02741 2.13695 9.13925C2.41518 9.24724 2.73263 9.32098 3.19798 9.34216C3.66431 9.36334 3.81307 9.36862 5.00016 9.36862C6.18725 9.36862 6.33626 9.36369 6.80234 9.34216C7.26772 9.32098 7.5855 9.24724 7.86337 9.13925C8.15079 9.02741 8.39442 8.87811 8.63771 8.63535C8.881 8.39259 9.03 8.14872 9.14191 7.86147C9.24997 7.58377 9.3241 7.26615 9.34494 6.80108C9.36614 6.33493 9.37107 6.18636 9.37107 4.99998C9.37107 3.8136 9.36614 3.66468 9.34494 3.19888C9.32375 2.73378 9.24997 2.41602 9.14191 2.13849C9.03 1.85125 8.88061 1.60775 8.63771 1.36461C8.39481 1.12147 8.15079 0.972241 7.86372 0.860718C7.5855 0.752726 7.26769 0.678634 6.80269 0.657804C6.33661 0.636625 6.1876 0.631348 5.00051 0.631348C3.81342 0.631348 3.66431 0.636275 3.19798 0.657804Z" fill="url(#paint0_radial_2182_55)"/>
<path d="M3.54331 4.99998C3.54331 4.19577 4.19547 3.54365 5.00016 3.54365C5.80486 3.54365 6.45736 4.19577 6.45736 4.99998C6.45736 5.80419 5.80486 6.45631 5.00016 6.45631C4.19547 6.45631 3.54331 5.80419 3.54331 4.99998ZM2.75557 4.99998C2.75557 6.23893 3.76047 7.24322 5.00016 7.24322C6.23985 7.24322 7.24475 6.23893 7.24475 4.99998C7.24475 3.76104 6.23985 2.75674 5.00016 2.75674C3.76047 2.75674 2.75557 3.76104 2.75557 4.99998ZM6.80906 2.6678C6.80902 2.77148 6.83974 2.87285 6.89734 2.95908C6.95495 3.04531 7.03684 3.11254 7.13268 3.15226C7.22851 3.19197 7.33398 3.2024 7.43574 3.18221C7.5375 3.16202 7.63098 3.11213 7.70437 3.03884C7.77776 2.96556 7.82776 2.87217 7.84804 2.77048C7.86832 2.6688 7.85797 2.56339 7.81831 2.46758C7.77865 2.37177 7.71144 2.28987 7.62521 2.23224C7.53897 2.1746 7.43756 2.14381 7.33382 2.14377H7.33361C7.19454 2.14383 7.06119 2.19906 6.96284 2.29731C6.86449 2.39557 6.80918 2.52882 6.80906 2.6678ZM3.23417 8.55595C2.80799 8.53655 2.57635 8.4656 2.42241 8.40566C2.21833 8.32626 2.07271 8.23169 1.91962 8.07889C1.76652 7.92609 1.67175 7.7807 1.59265 7.57674C1.53264 7.42297 1.46165 7.19139 1.44227 6.76547C1.42108 6.30498 1.41685 6.16665 1.41685 5.00002C1.41685 3.83338 1.42143 3.69544 1.44227 3.23456C1.46168 2.80864 1.5332 2.57752 1.59265 2.42329C1.6721 2.21933 1.76673 2.0738 1.91962 1.92079C2.0725 1.76779 2.21798 1.67307 2.42241 1.59402C2.57628 1.53405 2.80799 1.4631 3.23417 1.44374C3.69494 1.42256 3.83335 1.41833 5.00016 1.41833C6.16697 1.41833 6.30552 1.42291 6.76667 1.44374C7.19285 1.46314 7.42411 1.53461 7.57843 1.59402C7.78252 1.67307 7.92813 1.768 8.08123 1.92079C8.23433 2.07359 8.32875 2.21933 8.4082 2.42329C8.46821 2.57707 8.5392 2.80864 8.55857 3.23456C8.57976 3.69544 8.584 3.83338 8.584 5.00002C8.584 6.16665 8.57976 6.3046 8.55857 6.76547C8.53916 7.19139 8.46783 7.4229 8.4082 7.57674C8.32875 7.7807 8.23412 7.92623 8.08123 8.07889C7.92834 8.23155 7.78252 8.32626 7.57843 8.40566C7.42456 8.46564 7.19285 8.53658 6.76667 8.55595C6.30591 8.57712 6.1675 8.58135 5.00016 8.58135C3.83283 8.58135 3.6948 8.57712 3.23417 8.55595ZM3.19798 0.657804C2.73263 0.678983 2.41465 0.752726 2.13695 0.860718C1.84936 0.972241 1.6059 1.12186 1.36261 1.36461C1.11933 1.60737 0.970004 1.85107 0.858415 2.13849C0.750357 2.4162 0.67657 2.73381 0.655379 3.19888C0.633837 3.66468 0.628906 3.8136 0.628906 4.99998C0.628906 6.18636 0.633837 6.33528 0.655379 6.80108C0.67657 7.26618 0.750357 7.58377 0.858415 7.86147C0.970004 8.14872 1.11936 8.3927 1.36261 8.63535C1.60586 8.878 1.84936 9.02741 2.13695 9.13925C2.41518 9.24724 2.73263 9.32098 3.19798 9.34216C3.66431 9.36334 3.81307 9.36862 5.00016 9.36862C6.18725 9.36862 6.33626 9.36369 6.80234 9.34216C7.26772 9.32098 7.5855 9.24724 7.86337 9.13925C8.15079 9.02741 8.39442 8.87811 8.63771 8.63535C8.881 8.39259 9.03 8.14872 9.14191 7.86147C9.24997 7.58377 9.3241 7.26615 9.34494 6.80108C9.36614 6.33493 9.37107 6.18636 9.37107 4.99998C9.37107 3.8136 9.36614 3.66468 9.34494 3.19888C9.32375 2.73378 9.24997 2.41602 9.14191 2.13849C9.03 1.85125 8.88061 1.60775 8.63771 1.36461C8.39481 1.12147 8.15079 0.972241 7.86372 0.860718C7.5855 0.752726 7.26769 0.678634 6.80269 0.657804C6.33661 0.636625 6.1876 0.631348 5.00051 0.631348C3.81342 0.631348 3.66431 0.636275 3.19798 0.657804Z" fill="url(#paint1_radial_2182_55)"/>
<defs>
<radialGradient id="paint0_radial_2182_55" cx="0" cy="0" r="1" gradientUnits="userSpaceOnUse" gradientTransform="translate(1.7904 9.40989) scale(11.4126 11.4058)">
<stop offset="0.09" stop-color="#FA8F21"/>
<stop offset="0.78" stop-color="#D82D7E"/>
</radialGradient>
<radialGradient id="paint1_radial_2182_55" cx="0" cy="0" r="1" gradientUnits="userSpaceOnUse" gradientTransform="translate(5.93085 9.80132) scale(8.99471 8.98932)">
<stop offset="0.64" stop-color="#8C3AAA" stop-opacity="0"/>
<stop offset="1" stop-color="#8C3AAA"/>
</radialGradient>
</defs>
</svg>
