<svg width="10" height="8" viewBox="0 0 10 8" fill="none" xmlns="http://www.w3.org/2000/svg">
<path d="M9.45045 1.79908C9.34599 1.40635 9.03696 1.09653 8.64378 0.99035C7.93287 0.799805 5.08051 0.799805 5.08051 0.799805C5.08051 0.799805 2.2296 0.799805 1.51724 0.99035C1.12551 1.09508 0.81648 1.4049 0.710568 1.79908C0.520508 2.5118 0.520508 3.9998 0.520508 3.9998C0.520508 3.9998 0.520508 5.4878 0.710568 6.20053C0.815029 6.59326 1.12406 6.90308 1.51724 7.00926C2.2296 7.1998 5.08051 7.1998 5.08051 7.1998C5.08051 7.1998 7.93287 7.1998 8.64378 7.00926C9.03551 6.90453 9.34454 6.59471 9.45045 6.20053C9.64051 5.4878 9.64051 3.9998 9.64051 3.9998C9.64051 3.9998 9.64051 2.5118 9.45045 1.79908Z" fill="#FF3000"/>
<path d="M4.16938 5.37144L6.53861 3.9998L4.16938 2.62817V5.37144Z" fill="white"/>
</svg>
